<svg xmlns="http://www.w3.org/2000/svg" viewBox="0 0 835.53 738.9"><defs><style>.cls-1{isolation:isolate;}.cls-2{fill:#b4aea8;opacity:0.3;}.cls-2,.cls-27{mix-blend-mode:darken;}.cls-3{fill:#ce324a;}.cls-4{fill:#c0304d;}.cls-5{fill:#ec7589;}.cls-6{fill:#fbfdfd;}.cls-7{fill:#070807;}.cls-8{fill:#58595b;}.cls-9{fill:#f15951;}.cls-10{fill:#4a3b3c;}.cls-11{fill:#f9ed32;}.cls-12{fill:#f8eca4;}.cls-13{fill:#f7941d;}.cls-14{fill:#d1d3d4;}.cls-15{fill:#e3e3e3;}.cls-16{fill:#da3926;}.cls-17{fill:#f2c333;}.cls-18{fill:#e5b631;}.cls-19{fill:#e6e7e8;}.cls-20{fill:#ca2c2d;}.cls-21{fill:#0d9f5f;}.cls-22{fill:#0d9956;}.cls-23{fill:#979c9c;}.cls-24{fill:#a7a9ac;}.cls-25{fill:#8d5139;}.cls-26{fill:#262626;}.cls-27{fill:#59595a;opacity:0.1;}.cls-28{fill:#1b1b1b;}.cls-29{fill:#3f3233;}.cls-30{fill:#352a2c;}.cls-31{fill:#fbb040;}.cls-32{fill:#eda23d;}.cls-33{fill:#fff;}</style></defs><g class="cls-1"><g id="Layer_1" data-name="Layer 1"><path class="cls-2" d="M821.53,707.14H592.23a14,14,0,0,0-13-8.68H165.75a14,14,0,0,0-12.95,8.68H14a14,14,0,0,0-14,14v3.76a14,14,0,0,0,14,14H205.72a14,14,0,0,0,12.95-8.68H461.36a14,14,0,0,0,12.95,8.68H821.53a14,14,0,0,0,14-14v-3.76A14,14,0,0,0,821.53,707.14Z"/><path class="cls-3" d="M427,97.56H376.15c-38.12,0-71.54-14.23-95.74-37.12h-.69c-7,88.4-26.76,176.2-52.58,263.16-14.72,48.38-5,95.6,26.47,133.77,31.14,37.67,84,66.28,148,66.11h0c63.93.17,116.83-28.44,148-66.11C581,419.2,590.75,372,576,323.6c-25.81-87-45.55-174.76-52.57-263.16h-.7C498.57,83.33,465.15,97.55,427,97.56Z"/><path class="cls-4" d="M475.6,145.25a74.15,74.15,0,0,0-74,69.72,74.16,74.16,0,1,0,0,8.88,74.15,74.15,0,1,0,74-78.6Z"/><circle class="cls-5" cx="324.86" cy="210.51" r="74.16" transform="translate(-62.08 199.35) rotate(-31.29)"/><circle class="cls-5" cx="478.32" cy="210.51" r="74.16" transform="translate(-23.15 63.45) rotate(-7.41)"/><circle class="cls-6" cx="478.32" cy="210.51" r="60.01" transform="translate(-23.03 63.03) rotate(-7.36)"/><circle class="cls-7" cx="463.71" cy="230.84" r="25.16" transform="translate(-17.89 421.57) rotate(-48.07)"/><path class="cls-8" d="M456.54,218.86a7.49,7.49,0,1,0,9.34-5A7.49,7.49,0,0,0,456.54,218.86Z"/><circle class="cls-6" cx="324.2" cy="210.51" r="60.01" transform="translate(-17.23 29.28) rotate(-5.04)"/><circle class="cls-7" cx="339.14" cy="230.6" r="25.16" transform="translate(25.32 494.63) rotate(-74.29)"/><path class="cls-8" d="M334.9,227.2A7.49,7.49,0,1,0,333,216.79,7.48,7.48,0,0,0,334.9,227.2Z"/><path class="cls-4" d="M490.35,353.87c6.37-28,14.44-48.72,23.32-63.09-12.56,13.5-24.2,38.11-32.78,75.75C469.61,416,479,477.06,484.78,506q5.63-2.53,11-5.37C490.41,476,478,408,490.35,353.87Z"/><path class="cls-4" d="M322.27,366.55c-8.56-37.55-20.16-62.12-32.69-75.65,8.85,14.37,16.88,35.09,23.24,63,12.34,54.16-.06,122.14-5.41,146.78l2.08,1.09,1.88,1,3,1.48,2.06,1,1.91.87C324.17,477.05,333.55,416,322.27,366.55Z"/><path class="cls-4" d="M457.05,335.4c8.07,0,16.14-3,24.15-9.12a2.17,2.17,0,1,0-2.62-3.45c-14.49,11-28.57,11-43.06,0a2.17,2.17,0,0,0-2.62,3.45Q444.93,335.4,457.05,335.4Z"/><path class="cls-4" d="M400,335.4q12.11,0,24.15-9.12a2.17,2.17,0,0,0-2.63-3.45c-14.48,11-28.56,11-43,0a2.17,2.17,0,1,0-2.62,3.45C383.86,332.36,391.93,335.4,400,335.4Z"/><path class="cls-4" d="M342.94,335.4c8.07,0,16.14-3,24.15-9.12a2.17,2.17,0,1,0-2.62-3.45c-14.48,11-28.57,11-43.05,0a2.17,2.17,0,1,0-2.63,3.45Q330.82,335.4,342.94,335.4Z"/><path class="cls-4" d="M461,362.24a2.17,2.17,0,0,0,.41,3c8,6.08,16.08,9.12,24.15,9.12s16.14-3,24.15-9.12a2.17,2.17,0,0,0-2.62-3.45c-14.49,11-28.57,11-43.06,0A2.16,2.16,0,0,0,461,362.24Z"/><path class="cls-4" d="M404,362.24a2.17,2.17,0,0,0,.42,3c8,6.08,16.08,9.12,24.15,9.12s16.13-3,24.14-9.12a2.17,2.17,0,1,0-2.62-3.45c-14.48,11-28.57,11-43.05,0A2.17,2.17,0,0,0,404,362.24Z"/><path class="cls-4" d="M346.91,362.24a2.17,2.17,0,0,0,.41,3c8,6.08,16.08,9.12,24.15,9.12s16.14-3,24.15-9.12a2.17,2.17,0,0,0-2.62-3.45c-14.49,11-28.57,11-43.06,0A2.16,2.16,0,0,0,346.91,362.24Z"/><path class="cls-4" d="M314.42,374.4c8.06,0,16.13-3,24.14-9.12a2.17,2.17,0,1,0-2.62-3.45c-14.48,11-28.57,11-43.05,0a2.17,2.17,0,1,0-2.62,3.45C298.28,371.36,306.35,374.4,314.42,374.4Z"/><path class="cls-4" d="M483.42,401.24a2.16,2.16,0,0,0-3-.41c-14.49,11-28.57,11-43.06,0a2.17,2.17,0,1,0-2.62,3.45c8,6.08,16.08,9.12,24.15,9.12s16.13-3,24.15-9.12A2.18,2.18,0,0,0,483.42,401.24Z"/><path class="cls-4" d="M426.37,401.24a2.17,2.17,0,0,0-3-.41c-14.48,11-28.57,11-43.05,0a2.17,2.17,0,1,0-2.63,3.45c8,6.08,16.09,9.12,24.15,9.12s16.14-3,24.15-9.12A2.18,2.18,0,0,0,426.37,401.24Z"/><path class="cls-4" d="M369.31,401.24a2.16,2.16,0,0,0-3-.41c-14.49,11-28.57,11-43.06,0a2.17,2.17,0,1,0-2.62,3.45c8,6.08,16.08,9.12,24.15,9.12s16.13-3,24.15-9.12A2.18,2.18,0,0,0,369.31,401.24Z"/><path class="cls-4" d="M507.11,439.83c-14.49,11-28.57,11-43.06,0a2.17,2.17,0,0,0-2.62,3.45c8,6.08,16.08,9.12,24.15,9.12s16.14-3,24.15-9.12a2.17,2.17,0,0,0-2.62-3.45Z"/><path class="cls-4" d="M450.05,439.83c-14.48,11-28.57,11-43.05,0a2.17,2.17,0,1,0-2.62,3.45c8,6.08,16.08,9.12,24.15,9.12s16.13-3,24.14-9.12a2.17,2.17,0,1,0-2.62-3.45Z"/><path class="cls-4" d="M393,439.83c-14.49,11-28.57,11-43.06,0a2.17,2.17,0,0,0-2.62,3.45c8,6.08,16.08,9.12,24.15,9.12s16.14-3,24.15-9.12a2.17,2.17,0,0,0-2.62-3.45Z"/><path class="cls-4" d="M335.94,439.83c-14.48,11-28.57,11-43.05,0a2.17,2.17,0,1,0-2.62,3.45c8,6.08,16.08,9.12,24.15,9.12s16.13-3,24.14-9.12a2.17,2.17,0,1,0-2.62-3.45Z"/><path class="cls-9" d="M572.52,372.59c15.37-67.41,3.77-101.44-18.92-106.61s-47.88,20.47-63.25,87.89S498,510.13,498,510.13,557.16,440,572.52,372.59Z"/><path class="cls-9" d="M230.65,372.59c-15.37-67.41-3.77-101.44,18.92-106.61s47.88,20.47,63.25,87.89-7.61,156.26-7.61,156.26S246,440,230.65,372.59Z"/><path class="cls-10" d="M581.15,190.08a8.11,8.11,0,0,0-10.69-3L555,195.19A78.23,78.23,0,0,0,405.48,182a79.49,79.49,0,0,0-3.9,13.3,78.23,78.23,0,0,0-153.44-.06l-15.44-8.1a8.1,8.1,0,1,0-7.48,14.36l2.13,1.11a2.1,2.1,0,0,0,.94.23,2,2,0,0,0,.93-3.85l-2.13-1.11a4,4,0,0,1-2-2.47,4,4,0,0,1,5.74-4.65l16.61,8.71a78.23,78.23,0,0,0,154.16,26.36,78.32,78.32,0,0,0,76.77,63h0a78.28,78.28,0,0,0,77.4-89.34l16.6-8.71a4,4,0,0,1,5.74,4.65,4,4,0,0,1-2,2.47l-2.13,1.11a2,2,0,0,0,.94,3.85,2.09,2.09,0,0,0,.93-.23l2.14-1.11a8.1,8.1,0,0,0,3.2-11.37ZM324.86,284.66A74.16,74.16,0,1,1,399,210.51,74.15,74.15,0,0,1,324.86,284.66ZM508,278.47a74.16,74.16,0,1,1,38.28-97.64A74.16,74.16,0,0,1,508,278.47Z"/><path class="cls-11" d="M423.16,266l-21.57,40.9L380,266a10.56,10.56,0,0,1-.91-7.64c5.11-18.32,39.86-18.32,45,0A10.51,10.51,0,0,1,423.16,266Z"/><path class="cls-12" d="M412.25,262.11c-3,1-18.37,1-21.33,0-3.36-.78-.53-11.68,10.67-11.9C412.78,250.43,415.61,261.33,412.25,262.11Z"/><path class="cls-13" d="M574.84,600.08V519.86h11.34V508.51H268.44A51.46,51.46,0,0,0,217,560h0a51.46,51.46,0,0,0,51.45,51.46H586.18V600.08Z"/><path class="cls-14" d="M268.44,600.08a40.11,40.11,0,1,1,0-80.22h306.4v80.22Z"/><path class="cls-15" d="M229.2,568.29a40.19,40.19,0,0,0,39.24,31.79h306.4V536.49H268.44A40.2,40.2,0,0,0,229.2,568.29Z"/><path class="cls-16" d="M538.47,703V622.77h11.34V611.43H232.07a51.45,51.45,0,0,0-51.45,51.45h0a51.46,51.46,0,0,0,51.45,51.46H549.81V703Z"/><path class="cls-14" d="M232.07,703a40.12,40.12,0,0,1,0-80.23h306.4V703Z"/><path class="cls-15" d="M192.83,671.2A40.19,40.19,0,0,0,232.07,703h306.4V639.41H232.07A40.18,40.18,0,0,0,192.83,671.2Z"/><rect class="cls-17" x="102.06" y="448.74" width="15.12" height="77.42"/><rect class="cls-18" x="109.62" y="448.74" width="7.56" height="77.42"/><rect class="cls-19" x="102.06" y="445.72" width="15.12" height="3.02"/><rect class="cls-14" x="102.06" y="442.69" width="15.12" height="3.02"/><path class="cls-20" d="M114.24,431.63H105a2.94,2.94,0,0,0-2.93,2.94v8.12h15.12v-8.12A2.94,2.94,0,0,0,114.24,431.63Z"/><rect class="cls-21" x="78.22" y="448.64" width="15.12" height="88.76" transform="translate(-26.32 5.31) rotate(-3.07)"/><rect class="cls-22" x="85.78" y="448.43" width="7.56" height="88.76" transform="translate(-26.31 5.51) rotate(-3.08)"/><rect class="cls-14" x="75.24" y="445.69" width="15.64" height="3.02" transform="translate(-23.86 5.1) rotate(-3.07)"/><path class="cls-19" d="M72.15,446.41,74,481.18A3,3,0,0,0,77.2,484h0l-2.07-38.7-2.12.12A.91.91,0,0,0,72.15,446.41Z"/><path class="cls-21" d="M82.48,431.62h0A6.9,6.9,0,0,0,76,438.88l.39,7.17,13.78-.74-.39-7.17A6.89,6.89,0,0,0,82.48,431.62Z"/><path class="cls-22" d="M90.13,445.31l-.39-7.17a6.89,6.89,0,0,0-7.26-6.52l.76,14.06Z"/><polygon class="cls-17" points="128.2 477.57 124.75 526.16 139.91 526.16 143.29 478.64 128.2 477.57"/><polyline class="cls-17" points="124.75 526.16 139.91 526.16 143.29 478.64"/><polygon class="cls-18" points="135.74 478.11 132.33 526.16 139.91 526.16 142.92 483.83 143.29 478.64 135.74 478.11"/><rect class="cls-19" x="134.34" y="469.04" width="3.02" height="15.12" transform="translate(-349.17 578.36) rotate(-85.94)"/><rect class="cls-14" x="134.55" y="466.02" width="3.02" height="15.12" transform="translate(-345.96 575.77) rotate(-85.94)"/><path class="cls-20" d="M141.57,461.37l-9.23-.66a3,3,0,0,0-3.14,2.72l-.57,8.11,15.08,1.07.58-8.1A2.94,2.94,0,0,0,141.57,461.37Z"/><path class="cls-23" d="M35.56,526.16h148.6L171.87,706c-.74,10.9-10.69,19.4-22.71,19.4H70.56c-12,0-22-8.5-22.71-19.4Z"/><rect class="cls-24" x="77.31" y="526.16" width="25.9" height="199.27"/><rect class="cls-25" x="489.68" y="479.39" width="316.47" height="241.39"/><rect class="cls-26" x="506.7" y="496.4" width="282.44" height="207.36"/><rect class="cls-27" x="475.6" y="508.51" width="14.09" height="205.83"/><rect class="cls-28" x="506.7" y="496.4" width="282.44" height="16.97"/><path class="cls-29" d="M401.58,82.94,330.83,61.8V98.41c0,32.44,145.34,32.44,145.34,0V60.65Z"/><polygon class="cls-10" points="401.58 0 401.58 0 256.65 43.3 401.58 86.6 401.58 86.6 546.51 43.3 401.58 0"/><polygon class="cls-30" points="401.58 95.27 476.17 72.98 476.17 64.32 401.58 86.6 330.83 65.47 330.83 74.13 401.58 95.27"/><path class="cls-31" d="M480.51,94.29a1,1,0,0,1-1-1V63.8L401.34,44.27a1,1,0,1,1,.48-1.94l78.93,19.72a1,1,0,0,1,.76,1V93.29A1,1,0,0,1,480.51,94.29Z"/><path class="cls-17" d="M483.5,85.29a3,3,0,1,1-3-3A3,3,0,0,1,483.5,85.29Z"/><path class="cls-31" d="M482.93,87a3,3,0,0,1-4.84,0c-2.43,1.85-3.38,4.53-3.15,7.88,0,2.54,11.14,2.54,11.14,0C486.31,91.57,485.36,88.89,482.93,87Z"/><path class="cls-32" d="M483.05,87.14l-.12-.1a3,3,0,0,1-4.84,0,3.87,3.87,0,0,0-.37.32,3,3,0,0,0,2.6,1.55A3,3,0,0,0,483.05,87.14Z"/><path class="cls-32" d="M480.51,82.3a3.05,3.05,0,0,1,1,.18V82a3.05,3.05,0,0,0-1-.18,3,3,0,0,0-1,.18v.44A3,3,0,0,1,480.51,82.3Z"/><path class="cls-29" d="M401.34,44.27a.77.77,0,0,1-.26-.12,1,1,0,0,0,.73.76l75.86,19,1-.29Z"/><path class="cls-33" d="M575.15,558.94a9,9,0,0,1-3.59-3.76,12,12,0,0,1-1.28-5.64v-8.25a12,12,0,0,1,1.28-5.63,9.07,9.07,0,0,1,3.59-3.77,11.49,11.49,0,0,1,10.73,0,9.07,9.07,0,0,1,3.59,3.77,12,12,0,0,1,1.27,5.63v8.25a12,12,0,0,1-1.27,5.64,9,9,0,0,1-3.59,3.76,11.49,11.49,0,0,1-10.73,0Zm8.54-3.5a5.46,5.46,0,0,0,2.12-2.31,7.56,7.56,0,0,0,.75-3.45v-8.53a7.56,7.56,0,0,0-.75-3.45,5.49,5.49,0,0,0-2.12-2.3,6.16,6.16,0,0,0-3.18-.81,6.1,6.1,0,0,0-3.17.81,5.49,5.49,0,0,0-2.12,2.3,7.56,7.56,0,0,0-.75,3.45v8.53a7.56,7.56,0,0,0,.75,3.45,5.46,5.46,0,0,0,2.12,2.31,6.1,6.1,0,0,0,3.17.81A6.16,6.16,0,0,0,583.69,555.44Z"/><path class="cls-33" d="M611.85,559.91a12.68,12.68,0,0,1-3-1.08,12,12,0,0,1-2.58-1.8l2.42-3A13.6,13.6,0,0,0,612,556a9.19,9.19,0,0,0,3.28.64,7,7,0,0,0,3.63-.75,2.47,2.47,0,0,0,1.21-2.26,1.78,1.78,0,0,0-.66-1.5,3.86,3.86,0,0,0-1.64-.67c-.65-.11-1.57-.21-2.76-.31h-.34a1.79,1.79,0,0,1-.34,0h-.32a15.67,15.67,0,0,1-3.43-.59,4.66,4.66,0,0,1-2.33-1.61,5.36,5.36,0,0,1-.93-3.38,6.91,6.91,0,0,1,.9-3.67,5.54,5.54,0,0,1,2.68-2.19,11.81,11.81,0,0,1,4.47-.73,15.43,15.43,0,0,1,3.09.3,13.94,13.94,0,0,1,2.81.89,14.33,14.33,0,0,1,2.59,1.49l-2.47,3a13.83,13.83,0,0,0-3.07-1.51,9.47,9.47,0,0,0-2.95-.5,5.58,5.58,0,0,0-3.12.71,2.42,2.42,0,0,0-1.05,2.14,1.44,1.44,0,0,0,.6,1.26,3.52,3.52,0,0,0,1.49.56c.6.09,1.45.17,2.56.24l.25,0,.27,0h.12l.12,0a17.74,17.74,0,0,1,3.71.58,5,5,0,0,1,2.58,1.74,5.93,5.93,0,0,1,1,3.76,6.68,6.68,0,0,1-1,3.72,5.79,5.79,0,0,1-2.9,2.21,13.71,13.71,0,0,1-4.85.74A15.9,15.9,0,0,1,611.85,559.91Zm1.4,3h4.08V567l-4.08,4Z"/><path class="cls-33" d="M632.75,559.21a7.19,7.19,0,0,1-3.07-3.08,10.39,10.39,0,0,1-1.06-4.89v-3.42a10.19,10.19,0,0,1,1.06-4.83,7.17,7.17,0,0,1,3.07-3,10.41,10.41,0,0,1,4.86-1.05,11.53,11.53,0,0,1,3,.39,9.27,9.27,0,0,1,2.58,1.13,7.26,7.26,0,0,1,1.9,1.8l-2.95,2.65a6,6,0,0,0-2.06-1.55,5.87,5.87,0,0,0-2.46-.54A4.85,4.85,0,0,0,634,544.1a5.06,5.06,0,0,0-1.3,3.72v3.42a5.29,5.29,0,0,0,1.29,3.81,4.86,4.86,0,0,0,3.67,1.34,5.64,5.64,0,0,0,2.48-.58,6.09,6.09,0,0,0,2-1.64l2.95,2.84a7.4,7.4,0,0,1-1.92,1.77,9,9,0,0,1-2.58,1.11,11.86,11.86,0,0,1-3,.38A10.29,10.29,0,0,1,632.75,559.21Z"/><path class="cls-33" d="M653,559.21a7,7,0,0,1-2.94-3.09,11,11,0,0,1-1-4.9v-3.38a10.77,10.77,0,0,1,1-4.84,7,7,0,0,1,2.94-3.06,10.69,10.69,0,0,1,9.24,0,7,7,0,0,1,2.94,3.06,10.77,10.77,0,0,1,1,4.84v3.44a10.77,10.77,0,0,1-1,4.86,7.09,7.09,0,0,1-2.94,3.07,10.6,10.6,0,0,1-9.24,0Zm7.93-4.16a5.56,5.56,0,0,0,1.17-3.77v-3.44a5.44,5.44,0,0,0-1.17-3.74,4.78,4.78,0,0,0-6.62,0,5.44,5.44,0,0,0-1.17,3.74v3.44a5.56,5.56,0,0,0,1.17,3.77,4.76,4.76,0,0,0,6.62,0Z"/><path class="cls-33" d="M672.88,558.68a6,6,0,0,1-1.9-4.84,5.86,5.86,0,0,1,1.74-4.62,7.77,7.77,0,0,1,5.27-1.54h5.91l.27,3.28H678a3.48,3.48,0,0,0-2.39.71,2.78,2.78,0,0,0-.79,2.17,2.71,2.71,0,0,0,1,2.35,5.49,5.49,0,0,0,3.19.76,9.26,9.26,0,0,0,3.49-.5,1.65,1.65,0,0,0,1.15-1.56l.43,2.92a4.9,4.9,0,0,1-1.34,1.38A5.66,5.66,0,0,1,681,560a9.29,9.29,0,0,1-2.34.27Q674.79,560.27,672.88,558.68Zm10.83-11.88a4.4,4.4,0,0,0-1.09-3.18,4.09,4.09,0,0,0-3.09-1.13,8,8,0,0,0-2.43.38,7.1,7.1,0,0,0-2.11,1.07l-3-2.05a7.92,7.92,0,0,1,3.12-2.21,11.15,11.15,0,0,1,4.29-.79,9.82,9.82,0,0,1,4.42.91,6.36,6.36,0,0,1,2.81,2.64,8.52,8.52,0,0,1,1,4.18V560h-3.89Z"/><path class="cls-33" d="M697.89,554.61a1.85,1.85,0,0,0,.33,1.17,1.14,1.14,0,0,0,.93.41h1.92v3.88h-2.4a4.52,4.52,0,0,1-3.59-1.44,5.94,5.94,0,0,1-1.28-4.06V530.86h4.09Z"/><path class="cls-33" d="M706.38,558.68a5.94,5.94,0,0,1-1.9-4.84,5.86,5.86,0,0,1,1.74-4.62,7.72,7.72,0,0,1,5.26-1.54h5.91l.28,3.28H711.5a3.5,3.5,0,0,0-2.39.71,2.78,2.78,0,0,0-.79,2.17,2.71,2.71,0,0,0,1,2.35,5.49,5.49,0,0,0,3.19.76,9.32,9.32,0,0,0,3.5-.5,1.67,1.67,0,0,0,1.15-1.56l.42,2.92a4.87,4.87,0,0,1-1.33,1.38,5.81,5.81,0,0,1-1.84.81,9.29,9.29,0,0,1-2.34.27Q708.28,560.27,706.38,558.68Zm10.83-11.88a4.44,4.44,0,0,0-1.09-3.18,4.12,4.12,0,0,0-3.1-1.13,8.11,8.11,0,0,0-2.43.38,7.23,7.23,0,0,0-2.11,1.07l-3-2.05a7.82,7.82,0,0,1,3.11-2.21,11.19,11.19,0,0,1,4.29-.79,9.86,9.86,0,0,1,4.43.91,6.34,6.34,0,0,1,2.8,2.64,8.52,8.52,0,0,1,1,4.18V560h-3.88Zm-8.78-13.34a8.24,8.24,0,0,1-1.49-5.38h3.28a5.36,5.36,0,0,0,.67,3,2.27,2.27,0,0,0,2,1h.36a2.28,2.28,0,0,0,2-1,5.45,5.45,0,0,0,.67-3h3.28a8.3,8.3,0,0,1-1.49,5.38,5.52,5.52,0,0,1-4.48,1.79h-.36A5.5,5.5,0,0,1,708.43,533.46Z"/><path class="cls-33" d="M594,588.39h4.08v29.23H594Zm5.92,20.15a5.44,5.44,0,0,1-2.12-2.63l.28-4.35a5,5,0,0,0,.48,2.29,3.45,3.45,0,0,0,1.39,1.44,4.6,4.6,0,0,0,2.21.5,4,4,0,0,0,3.14-1.23,5,5,0,0,0,1.11-3.48v-4.5a5.18,5.18,0,0,0-1.11-3.54,3.94,3.94,0,0,0-3.14-1.27,4.71,4.71,0,0,0-2.21.48,3.29,3.29,0,0,0-1.39,1.42,4.8,4.8,0,0,0-.48,2.23l-.42-4a7.29,7.29,0,0,1,2.46-2.81,6.09,6.09,0,0,1,3.39-1,7,7,0,0,1,3.77,1,6.25,6.25,0,0,1,2.39,2.89,11.52,11.52,0,0,1,.82,4.59v4.52a11.1,11.1,0,0,1-.84,4.53,6.26,6.26,0,0,1-2.46,2.87,7.32,7.32,0,0,1-3.88,1A6.11,6.11,0,0,1,599.89,608.54Z"/><path class="cls-33" d="M619.85,608.39a7.22,7.22,0,0,1-3.11-3.17,10.93,10.93,0,0,1-1.07-5.06v-2.34a12.23,12.23,0,0,1,1-5.27,7.38,7.38,0,0,1,3-3.32,9.28,9.28,0,0,1,4.73-1.14,7.49,7.49,0,0,1,4.44,1.3,8,8,0,0,1,2.81,3.77,16,16,0,0,1,1,5.9v1.36h-14v-3.28h10.13a7,7,0,0,0-1.31-3.95,3.67,3.67,0,0,0-3-1.42,4.43,4.43,0,0,0-3.6,1.53,6.56,6.56,0,0,0-1.27,4.3v2.64a5.42,5.42,0,0,0,1.36,4,5.2,5.2,0,0,0,3.87,1.38,6.55,6.55,0,0,0,2.46-.5,7.26,7.26,0,0,0,2.18-1.4l2.68,2.68a11.16,11.16,0,0,1-3.46,2.29,9.87,9.87,0,0,1-3.86.81A10.41,10.41,0,0,1,619.85,608.39Z"/><path class="cls-33" d="M638.25,588.39h4.08v20.78h-4.08Zm12.61,8.19a4.78,4.78,0,0,0-1.14-3.41,4.21,4.21,0,0,0-3.2-1.2,4.26,4.26,0,0,0-3.1,1.07,4,4,0,0,0-1.09,3l-.42-4a7.4,7.4,0,0,1,2.52-2.9,6.08,6.08,0,0,1,3.43-1,6.45,6.45,0,0,1,5.23,2.21,9.47,9.47,0,0,1,1.86,6.26v12.61h-4.09Z"/><path class="cls-33" d="M659.55,588.39h9.37v3.68h-9.37Zm3.31,19.49a6.26,6.26,0,0,1-1.17-4.11V582.34h4.09v21.47a2,2,0,0,0,.3,1.17,1,1,0,0,0,.88.41h2v3.88h-2.36A4.57,4.57,0,0,1,662.86,607.88Z"/><path class="cls-33" d="M674.53,588.39h4.08v20.78h-4.08Zm10.07,3.92a5.13,5.13,0,0,0-1.91-.34,3.72,3.72,0,0,0-4.08,4l-.42-4a7.68,7.68,0,0,1,2.48-2.89,5.87,5.87,0,0,1,3.37-1,7.74,7.74,0,0,1,2.57.41,5.87,5.87,0,0,1,2,1.21L686,593.32A3.42,3.42,0,0,0,684.6,592.31Z"/><path class="cls-33" d="M696.11,601a4.78,4.78,0,0,0,1.11,3.38,4.08,4.08,0,0,0,3.13,1.19,4.31,4.31,0,0,0,3.1-1.06,4,4,0,0,0,1.1-3l.28,4.35a5.86,5.86,0,0,1-5.62,3.62,6.6,6.6,0,0,1-5.32-2.21A9.43,9.43,0,0,1,692,601V588.39h4.09Zm8.44-12.63h4.07v20.78h-4.07Z"/><path class="cls-33" d="M583.66,637.59h10.39v3.48H583.66Zm2.2-2.82a5.91,5.91,0,0,1,1.27-4.14,5.11,5.11,0,0,1,3.91-1.37h3v3.89h-2.93a1,1,0,0,0-.88.44,2,2,0,0,0-.3,1.14v23.64h-4.08Z"/><path class="cls-33" d="M598.85,629.26h4.09v4.09h-4.09Zm0,8.33h4.09v20.78h-4.09Z"/><path class="cls-33" d="M612.73,657.59a7.29,7.29,0,0,1-3.12-3.17,11.06,11.06,0,0,1-1.07-5.06V647a12.38,12.38,0,0,1,1-5.27,7.41,7.41,0,0,1,3-3.32,9.22,9.22,0,0,1,4.72-1.14,7.44,7.44,0,0,1,4.44,1.3,8.09,8.09,0,0,1,2.82,3.77,16.24,16.24,0,0,1,1,5.9v1.36h-14v-3.28h10.13a6.92,6.92,0,0,0-1.31-4,3.66,3.66,0,0,0-3-1.42,4.39,4.39,0,0,0-3.59,1.53,6.51,6.51,0,0,0-1.27,4.3v2.64a5.42,5.42,0,0,0,1.36,4,5.16,5.16,0,0,0,3.86,1.38,6.48,6.48,0,0,0,2.46-.5,7.14,7.14,0,0,0,2.18-1.4l2.69,2.68a11.2,11.2,0,0,1-3.47,2.29,9.83,9.83,0,0,1-3.86.81A10.39,10.39,0,0,1,612.73,657.59Z"/><path class="cls-33" d="M634.66,657.61a7.21,7.21,0,0,1-3.08-3.08,10.51,10.51,0,0,1-1.06-4.89v-3.42a10.31,10.31,0,0,1,1.06-4.83,7.2,7.2,0,0,1,3.08-3,10.37,10.37,0,0,1,4.85-1.05,11.53,11.53,0,0,1,3,.39,9.14,9.14,0,0,1,2.58,1.13,7.26,7.26,0,0,1,1.9,1.8l-2.94,2.65a6.26,6.26,0,0,0-2.07-1.55,5.84,5.84,0,0,0-2.46-.54,4.92,4.92,0,0,0-3.66,1.33,5.06,5.06,0,0,0-1.3,3.72v3.42a5.29,5.29,0,0,0,1.29,3.81,4.86,4.86,0,0,0,3.67,1.34,5.61,5.61,0,0,0,2.48-.58,6.22,6.22,0,0,0,2.05-1.64l2.94,2.84a7.4,7.4,0,0,1-1.92,1.77,8.83,8.83,0,0,1-2.58,1.11,11.86,11.86,0,0,1-3,.38A10.25,10.25,0,0,1,634.66,657.61Z"/><path class="cls-33" d="M652.44,657.08a6,6,0,0,1-1.9-4.83,5.87,5.87,0,0,1,1.74-4.63,7.77,7.77,0,0,1,5.27-1.54h5.91l.27,3.28h-6.16a3.48,3.48,0,0,0-2.39.71,2.78,2.78,0,0,0-.79,2.18,2.7,2.7,0,0,0,1.05,2.34,5.49,5.49,0,0,0,3.19.76,9.26,9.26,0,0,0,3.49-.5,1.65,1.65,0,0,0,1.15-1.56l.43,2.92a4.9,4.9,0,0,1-1.34,1.38,5.66,5.66,0,0,1-1.83.81,9.29,9.29,0,0,1-2.34.27Q654.35,658.67,652.44,657.08Zm10.83-11.88a4.36,4.36,0,0,0-1.09-3.17,4.07,4.07,0,0,0-3.09-1.14,8,8,0,0,0-2.43.38,7.1,7.1,0,0,0-2.11,1.07l-3-2.05a7.92,7.92,0,0,1,3.12-2.21,11.15,11.15,0,0,1,4.29-.79,9.82,9.82,0,0,1,4.42.91,6.36,6.36,0,0,1,2.81,2.64,8.52,8.52,0,0,1,1,4.18v13.35h-3.89Z"/><path class="cls-33" d="M673.37,637.59h4.08v20.78h-4.08Zm10.07,3.92a5.13,5.13,0,0,0-1.91-.34,3.73,3.73,0,0,0-4.08,4.05l-.42-4a7.68,7.68,0,0,1,2.48-2.89,5.87,5.87,0,0,1,3.37-1,7.74,7.74,0,0,1,2.57.41,5.87,5.87,0,0,1,2,1.21l-2.66,3.61A3.52,3.52,0,0,0,683.44,641.51Z"/><path class="cls-33" d="M694,657.59a7.27,7.27,0,0,1-3.11-3.17,11.06,11.06,0,0,1-1.07-5.06V647a12.23,12.23,0,0,1,1-5.27,7.44,7.44,0,0,1,3-3.32,9.28,9.28,0,0,1,4.73-1.14,7.47,7.47,0,0,1,4.44,1.3,8.09,8.09,0,0,1,2.82,3.77,16.24,16.24,0,0,1,1,5.9v1.36h-14v-3.28H703a6.92,6.92,0,0,0-1.31-4,3.66,3.66,0,0,0-3-1.42A4.39,4.39,0,0,0,695,642.5a6.51,6.51,0,0,0-1.28,4.3v2.64a5.42,5.42,0,0,0,1.37,4,5.16,5.16,0,0,0,3.86,1.38,6.48,6.48,0,0,0,2.46-.5,7.14,7.14,0,0,0,2.18-1.4l2.69,2.68a11.32,11.32,0,0,1-3.47,2.29,9.87,9.87,0,0,1-3.86.81A10.46,10.46,0,0,1,694,657.59Z"/><path class="cls-33" d="M712.64,654.09h4.29v4.28h-4.29Zm.1-24.83h4.09V650.9h-4.09Z"/></g></g></svg>