<?xml version="1.0" encoding="utf-8"?>
<svg version="1.1"
	 id="Layer_1" xmlns:cc="http://creativecommons.org/ns#" xmlns:dc="http://purl.org/dc/elements/1.1/" xmlns:inkscape="http://www.inkscape.org/namespaces/inkscape" xmlns:rdf="http://www.w3.org/1999/02/22-rdf-syntax-ns#" xmlns:sodipodi="http://sodipodi.sourceforge.net/DTD/sodipodi-0.dtd" xmlns:svg="http://www.w3.org/2000/svg"
	 xmlns="http://www.w3.org/2000/svg" xmlns:xlink="http://www.w3.org/1999/xlink" x="0px" y="0px" viewBox="0 0 80 56"
	 style="enable-background:new 0 0 80 56;" xml:space="preserve">
<g transform="translate(0,-952.36218)">
	<path fill="#D4D4D4" d="M5.2,952.4c-2.9,0-5.2,2.3-5.2,5.2v45.6c0,2.9,2.4,5.2,5.2,5.2h69.6c2.9,0,5.2-2.4,5.2-5.2v-45.6c0-2.9-2.4-5.2-5.2-5.2
		H5.2z M5.2,956.4h69.6l-33.3,21.2c-0.6,0.4-2.4,0.4-2.9,0L5.2,956.4z M4,960.3L36.4,981c2.2,1.4,5,1.4,7.2,0L76,960.3v42.8
		c0,0.7-0.5,1.2-1.2,1.2H5.2c-0.7,0-1.2-0.5-1.2-1.2V960.3z"/>
</g>
</svg>
