<svg id="visual" viewBox="0 0 900 600" width="900" height="600" xmlns="http://www.w3.org/2000/svg" xmlns:xlink="http://www.w3.org/1999/xlink" version="1.1"><rect x="0" y="0" width="900" height="600" fill="#fff"></rect><path d="M0 86L30 81C60 76 120 66 180 66.2C240 66.3 300 76.7 360 76.2C420 75.7 480 64.3 540 63.2C600 62 660 71 720 74C780 77 840 74 870 72.5L900 71L900 0L870 0C840 0 780 0 720 0C660 0 600 0 540 0C480 0 420 0 360 0C300 0 240 0 180 0C120 0 60 0 30 0L0 0Z" fill="#003e6e"></path><path d="M0 55L30 52.5C60 50 120 45 180 41.8C240 38.7 300 37.3 360 41.5C420 45.7 480 55.3 540 55.7C600 56 660 47 720 44C780 41 840 44 870 45.5L900 47L900 0L870 0C840 0 780 0 720 0C660 0 600 0 540 0C480 0 420 0 360 0C300 0 240 0 180 0C120 0 60 0 30 0L0 0Z" fill="#002845"></path><path d="M0 31L30 32C60 33 120 35 180 33.3C240 31.7 300 26.3 360 23.8C420 21.3 480 21.7 540 23.5C600 25.3 660 28.7 720 28C780 27.3 840 22.7 870 20.3L900 18L900 0L870 0C840 0 780 0 720 0C660 0 600 0 540 0C480 0 420 0 360 0C300 0 240 0 180 0C120 0 60 0 30 0L0 0Z" fill="#001220"></path></svg>