<?xml version="1.0" encoding="utf-8"?>
<!-- Generator: Adobe Illustrator 25.1.0, SVG Export Plug-In . SVG Version: 6.00 Build 0)  -->
<svg version="1.1" id="visual" xmlns="http://www.w3.org/2000/svg" xmlns:xlink="http://www.w3.org/1999/xlink" x="0px" y="0px"
	 viewBox="0 0 900 80" style="enable-background:new 0 0 900 80;" xml:space="preserve">
<style type="text/css">
	.st0{fill:#003E6E;}
	.st1{fill:#002845;}
	.st2{fill:#001220;}
</style>
<path class="st0" d="M0,5l12.5,2.2C25,9.3,50,13.7,75,17.5s50,7.2,75,3S200,4.7,225,4s50,9.7,75,10.8c25,1.2,50-6.8,75-9
	c25-2.1,50,1.5,75,5s50,6.9,75,7.4s50-1.9,75-0.7s50,5.8,75,2s50-16.2,75-16.3C775,3,800,15,825,16.5s50-7.5,62.5-12L900,0v81h-12.5
	C875,81,850,81,825,81s-50,0-75,0s-50,0-75,0s-50,0-75,0s-50,0-75,0s-50,0-75,0s-50,0-75,0s-50,0-75,0s-50,0-75,0s-50,0-75,0
	s-50,0-75,0s-50,0-62.5,0H0V5z"/>
<path class="st1" d="M0,43l12.5-1.8C25,39.3,50,35.7,75,34.5s50,0.2,75-0.7c25-0.8,50-3.8,75-5.8s50-3,75-0.3c25,2.6,50,9,75,12.1
	c25,3.2,50,3.2,75-1c25-4.1,50-12.5,75-16.6c25-4.2,50-4.2,75-1.4c25,2.9,50,8.5,75,8.9c25,0.3,50-4.7,75-5c25-0.4,50,4,75,7.8
	s50,7.2,62.5,8.8L900,43v38h-12.5C875,81,850,81,825,81s-50,0-75,0s-50,0-75,0s-50,0-75,0s-50,0-75,0s-50,0-75,0s-50,0-75,0
	s-50,0-75,0s-50,0-75,0s-50,0-75,0s-50,0-75,0s-50,0-62.5,0H0V43z"/>
<path class="st2" d="M0,57l12.5-3.3C25,50.3,50,43.7,75,43.2s50,5.1,75,7.6s50,1.9,75,0.9s50-2.4,75-3.4s50-1.6,75-2.1
	s50-0.9,75,0.6s50,4.9,75,4c25-0.8,50-5.8,75-6.1c25-0.4,50,4,75,6.5s50,3.1,75,2.5c25-0.7,50-2.7,75-3.5c25-0.9,50-0.5,62.5-0.4
	L900,50v31h-12.5C875,81,850,81,825,81s-50,0-75,0s-50,0-75,0s-50,0-75,0s-50,0-75,0s-50,0-75,0s-50,0-75,0s-50,0-75,0s-50,0-75,0
	s-50,0-75,0s-50,0-75,0s-50,0-62.5,0H0V57z"/>
</svg>
