<?xml version="1.0" encoding="utf-8"?>
<!-- Generator: Adobe Illustrator 25.1.0, SVG Export Plug-In . SVG Version: 6.00 Build 0)  -->
<svg version="1.1" id="visual" xmlns="http://www.w3.org/2000/svg" xmlns:xlink="http://www.w3.org/1999/xlink" x="0px" y="0px"
	 viewBox="0 0 900 76" style="enable-background:new 0 0 900 76;" xml:space="preserve">
<style type="text/css">
	.st0{fill:#003E6E;}
	.st1{fill:#002845;}
	.st2{fill:#001220;}
</style>
<path class="st0" d="M0,22l25,0.3c25,0.4,75,1,125,0.4c50-0.7,100-2.7,150-3.9c50-1.1,100-1.5,150-0.3s100,3.8,150,2.5
	s100-6.7,150-10.8C800,6,850,3,875,1.5L900,0v77h-25c-25,0-75,0-125,0s-100,0-150,0s-100,0-150,0s-100,0-150,0s-100,0-150,0
	S50,77,25,77H0V22z"/>
<path class="st1" d="M0,17l25,2.3c25,2.4,75,7,125,8.9c50,1.8,100,0.8,150,1c50,0.1,100,1.5,150,0.8s100-3.3,150-2.2
	c50,1.2,100,6.2,150,6.5c50,0.4,100-4,125-6.1l25-2.2v51h-25c-25,0-75,0-125,0s-100,0-150,0s-100,0-150,0s-100,0-150,0s-100,0-150,0
	S50,77,25,77H0V17z"/>
<path class="st2" d="M0,48l25-1.2c25-1.1,75-3.5,125-5s100-2.1,150-2.5c50-0.3,100-0.3,150,0c50,0.4,100,1,150,1.4
	c50,0.3,100,0.3,150,1c50,0.6,100,2,125,2.6l25,0.7v32h-25c-25,0-75,0-125,0s-100,0-150,0s-100,0-150,0s-100,0-150,0s-100,0-150,0
	S50,77,25,77H0V48z"/>
</svg>
