<?xml version="1.0" encoding="utf-8"?>
<!-- Generator: Adobe Illustrator 25.1.0, SVG Export Plug-In . SVG Version: 6.00 Build 0)  -->
<svg version="1.1" id="visual" xmlns="http://www.w3.org/2000/svg" xmlns:xlink="http://www.w3.org/1999/xlink" x="0px" y="0px"
	 viewBox="0 0 900 84.3" style="enable-background:new 0 0 900 84.3;" xml:space="preserve">
<style type="text/css">
	.st0{fill:#003E6E;}
	.st1{fill:#002845;}
	.st2{fill:#001220;}
</style>
<path class="st0" d="M0,84l12.5,0.2C25,84.3,50,84.7,75,82s50-8.3,75-11.5s50-3.8,75-2s50,6.2,75,3.8c25-2.3,50-11.3,75-15.1
	c25-3.9,50-2.5,75,3.3s50,16.2,75,19.7s50,0.1,75-4.5c25-4.7,50-10.7,75-10.5c25,0.1,50,6.5,75,6s50-7.9,75-7.5
	C850,64,875,72,887.5,76l12.5,4V0h-12.5C875,0,850,0,825,0s-50,0-75,0s-50,0-75,0s-50,0-75,0s-50,0-75,0s-50,0-75,0s-50,0-75,0
	s-50,0-75,0s-50,0-75,0s-50,0-75,0s-50,0-75,0S25,0,12.5,0H0V84z"/>
<path class="st1" d="M0,54l12.5,0.7C25,55.3,50,56.7,75,56.8c25,0.2,50-0.8,75-3.5c25-2.6,50-7,75-6.5s50,5.9,75,8.5
	c25,2.7,50,2.7,75,2.9c25,0.1,50,0.5,75-1.9c25-2.3,50-7.3,75-7.6c25-0.4,50,4,75,6.1c25,2.2,50,2.2,75,1.4c25-0.9,50-2.5,75-2
	s50,3.1,75,0.1s50-11.6,62.5-16L900,34V0h-12.5C875,0,850,0,825,0s-50,0-75,0s-50,0-75,0s-50,0-75,0s-50,0-75,0s-50,0-75,0
	s-50,0-75,0s-50,0-75,0s-50,0-75,0s-50,0-75,0s-50,0-75,0S25,0,12.5,0H0V54z"/>
<path class="st2" d="M0,38l12.5,0.3C25,38.7,50,39.3,75,37s50-7.7,75-9.8c25-2.2,50-1.2,75-0.7s50,0.5,75,2.5s50,6,75,6.7
	c25,0.6,50-2,75-4s50-3.4,75-2c25,1.3,50,5.3,75,6.8s50,0.5,75,0.3c25-0.1,50,0.5,75,1.4c25,0.8,50,1.8,75-1.5
	c25-3.4,50-11,62.5-14.9L900,18V0h-12.5C875,0,850,0,825,0s-50,0-75,0s-50,0-75,0s-50,0-75,0s-50,0-75,0s-50,0-75,0s-50,0-75,0
	s-50,0-75,0s-50,0-75,0s-50,0-75,0s-50,0-75,0S25,0,12.5,0H0V38z"/>
</svg>
