<?xml version="1.0" encoding="utf-8"?>
<!-- Generator: Adobe Illustrator 25.1.0, SVG Export Plug-In . SVG Version: 6.00 Build 0)  -->
<svg version="1.1" id="visual" xmlns="http://www.w3.org/2000/svg" xmlns:xlink="http://www.w3.org/1999/xlink" x="0px" y="0px"
	 viewBox="0 0 900 86" style="enable-background:new 0 0 900 86;" xml:space="preserve">
<style type="text/css">
	.st0{fill:#003E6E;}
	.st1{fill:#002845;}
	.st2{fill:#001220;}
</style>
<path class="st0" d="M0,86l30-5c30-5,90-15,150-14.8c60,0.1,120,10.5,180,10s120-11.9,180-13C600,62,660,71,720,74s120,0,150-1.5
	l30-1.5V0h-30c-30,0-90,0-150,0S600,0,540,0S420,0,360,0S240,0,180,0S60,0,30,0H0V86z"/>
<path class="st1" d="M0,55l30-2.5C60,50,120,45,180,41.8c60-3.1,120-4.5,180-0.3s120,13.8,180,14.2C600,56,660,47,720,44
	s120,0,150,1.5l30,1.5V0h-30c-30,0-90,0-150,0S600,0,540,0S420,0,360,0S240,0,180,0S60,0,30,0H0V55z"/>
<path class="st2" d="M0,31l30,1c30,1,90,3,150,1.3c60-1.6,120-7,180-9.5s120-2.1,180-0.3s120,5.2,180,4.5s120-5.3,150-7.7l30-2.3V0
	h-30c-30,0-90,0-150,0S600,0,540,0S420,0,360,0S240,0,180,0S60,0,30,0H0V31z"/>
</svg>
