<?xml version="1.0" encoding="utf-8"?>
<!-- Generator: Adobe Illustrator 25.1.0, SVG Export Plug-In . SVG Version: 6.00 Build 0)  -->
<svg version="1.1" id="Layer_1" xmlns="http://www.w3.org/2000/svg" xmlns:xlink="http://www.w3.org/1999/xlink" x="0px" y="0px"
	 viewBox="0 0 64 63.2" style="enable-background:new 0 0 64 63.2;" xml:space="preserve">
<g>
	<g>
		<path fill="#D4D4D4" d="M60.3,63.2H3.7c-2,0-3.7-1.7-3.7-3.7v-37c0-2,1.7-3.7,3.7-3.7h1.5c0.4,0,0.7,0.2,0.9,0.5c2.7,5.3,7.5,11.2,9.3,13.4
			c1.8-2.2,6.6-8.2,9.3-13.4c0.2-0.3,0.5-0.5,0.9-0.5h34.7c2,0,3.7,1.7,3.7,3.7v37C64,61.5,62.3,63.2,60.3,63.2z M3.7,20.8
			c-0.9,0-1.7,0.8-1.7,1.7v37c0,0.9,0.8,1.7,1.7,1.7h56.6c0.9,0,1.7-0.8,1.7-1.7v-37c0-0.9-0.8-1.7-1.7-1.7H26.2
			c-3.6,6.7-9.8,13.9-10.1,14.2c-0.2,0.2-0.5,0.3-0.8,0.3l0,0c-0.3,0-0.6-0.1-0.8-0.3c-0.3-0.3-6.5-7.5-10.1-14.2H3.7z"/>
	</g>
	<g>
		<path fill="#D4D4D4" d="M1,54.6c-0.3,0-0.6-0.1-0.8-0.4c-0.4-0.4-0.3-1.1,0.1-1.4L41.5,19c0.3-0.3,0.7-0.3,1.1-0.1c0.4,0.2,0.6,0.6,0.5,1L41,47.2
			l21.7-8.4c0.5-0.2,1.1,0.1,1.3,0.6s-0.1,1.1-0.6,1.3l-23.2,9c-0.3,0.1-0.7,0.1-1-0.1c-0.3-0.2-0.4-0.5-0.4-0.9L41,22L1.6,54.4
			C1.5,54.5,1.2,54.6,1,54.6z"/>
	</g>
	<g>
		<path fill="#D4D4D4" d="M29.7,63.2c-0.3,0-0.6-0.1-0.8-0.3C18.1,50.2,1.5,31.1,0.3,30c-0.4-0.4-0.5-1-0.1-1.4c0.4-0.4,1-0.5,1.4-0.1
			c1.6,1.4,23,26.3,28,32.1l32-40.4c0.3-0.4,1-0.5,1.4-0.2c0.4,0.3,0.5,1,0.2,1.4L30.4,62.8C30.3,63.1,30,63.2,29.7,63.2
			C29.7,63.2,29.7,63.2,29.7,63.2z"/>
	</g>
	<g>
		<path fill="#D4D4D4" d="M15.4,35.3c-0.3,0-0.6-0.1-0.8-0.3C14.3,34.6,7.8,27,4.3,20.2c-1.5-2.9-2.2-5.1-2.2-6.9C2.1,6,8,0,15.4,0
			s13.3,6,13.3,13.3c0,1.8-0.7,4-2.2,6.9C23,27,16.4,34.6,16.1,35C15.9,35.2,15.7,35.3,15.4,35.3z M15.4,2C9.1,2,4.1,7.1,4.1,13.3
			c0,1.4,0.7,3.5,2,6c2.7,5.3,7.5,11.2,9.3,13.4c1.8-2.2,6.6-8.2,9.3-13.4c1.3-2.6,2-4.6,2-6C26.7,7.1,21.6,2,15.4,2z"/>
	</g>
	<g>
		<path fill="#D4D4D4" d="M15.4,21.2c-4.4,0-7.9-3.6-7.9-7.9s3.6-7.9,7.9-7.9s7.9,3.6,7.9,7.9S19.8,21.2,15.4,21.2z M15.4,7.4
			c-3.3,0-5.9,2.7-5.9,5.9c0,3.3,2.7,5.9,5.9,5.9s5.9-2.7,5.9-5.9C21.3,10,18.6,7.4,15.4,7.4z"/>
	</g>
</g>
</svg>
