<?xml version="1.0" encoding="utf-8"?>
<!-- Generator: Adobe Illustrator 25.1.0, SVG Export Plug-In . SVG Version: 6.00 Build 0)  -->
<svg version="1.1" id="Layer_1" xmlns="http://www.w3.org/2000/svg" xmlns:xlink="http://www.w3.org/1999/xlink" x="0px" y="0px"
	 viewBox="0 0 220 424.6" style="enable-background:new 0 0 220 424.6;" xml:space="preserve">
<style type="text/css">
	.st0{fill-rule:evenodd;clip-rule:evenodd;}
</style>
<g>
	<path fill="#D4D4D4" class="st0" d="M39.3,0h141.3C202.3,0,220,17.7,220,39.3v346c0,21.6-17.7,39.3-39.3,39.3H39.3C17.7,424.6,0,406.9,0,385.3
		v-346C0,17.7,17.7,0,39.3,0L39.3,0z M110,15.8c3.9,0,7.1,3.2,7.1,7.1c0,3.9-3.2,7.1-7.1,7.1c-3.9,0-7.1-3.2-7.1-7.1
		C102.9,19,106.1,15.8,110,15.8z M204.5,48.6v306.2H15.4V48.6C15.4,48.6,204.5,48.6,204.5,48.6z M93.8,376.9h32.4
		c13.4,0,13.4,20.3,0,20.3H93.8C80.4,397.2,80.4,376.9,93.8,376.9z"/>
</g>
</svg>
