<?xml version="1.0" encoding="utf-8"?>
<svg version="1.1" id="Layer_1" xmlns="http://www.w3.org/2000/svg" xmlns:xlink="http://www.w3.org/1999/xlink" x="0px" y="0px"
	 viewBox="0 0 90 90" style="enable-background:new 0 0 90 90;" xml:space="preserve">
<path fill="rgb(147, 149, 151)" d="M45,0C20.1,0,0,20.1,0,45s20.1,45,45,45s45-20.1,45-45S69.9,0,45,0L45,0z M70.7,57.1c-2.6,2.6-6.9,2.6-9.5,0L45,41
	L28.8,57.1c-2.6,2.7-6.9,2.7-9.5,0c-2.6-2.6-2.6-6.9,0-9.5l20.9-20.9c2.6-2.6,6.9-2.6,9.5,0c0,0,20.8,20.8,20.9,20.9
	C73.3,50.2,73.3,54.4,70.7,57.1z"/>
</svg>
